<svg width="72" height="12" viewBox="0 0 72 12" fill="none" xmlns="http://www.w3.org/2000/svg">
<circle cx="6" cy="6" r="5.625" stroke="#F75349" stroke-width="0.75"/>
<path d="M2 2L10 9.75" stroke="#F75349" stroke-width="1.5"/>
<path d="M20.8352 4.31889C20.8068 4.03243 20.6849 3.8099 20.4695 3.65128C20.254 3.49266 19.9616 3.41335 19.5923 3.41335C19.3414 3.41335 19.1295 3.44886 18.9567 3.51989C18.7839 3.58854 18.6513 3.68442 18.5589 3.80753C18.469 3.93063 18.424 4.07031 18.424 4.22656C18.4193 4.35677 18.4465 4.47041 18.5057 4.56747C18.5672 4.66454 18.6513 4.74858 18.7578 4.8196C18.8643 4.88826 18.9875 4.94863 19.1271 5.00071C19.2668 5.05043 19.416 5.09304 19.5746 5.12855L20.228 5.2848C20.5452 5.35582 20.8364 5.45052 21.1016 5.56889C21.3667 5.68726 21.5964 5.83286 21.7905 6.00568C21.9846 6.1785 22.1349 6.3821 22.2415 6.61648C22.3504 6.85085 22.406 7.11955 22.4084 7.42259C22.406 7.86766 22.2924 8.25355 22.0675 8.58026C21.8449 8.90459 21.523 9.15672 21.1016 9.33665C20.6825 9.5142 20.1771 9.60298 19.5852 9.60298C18.9981 9.60298 18.4867 9.51302 18.0511 9.3331C17.6179 9.15317 17.2794 8.88684 17.0355 8.53409C16.794 8.17898 16.6674 7.73982 16.6555 7.21662H18.1435C18.16 7.46046 18.2299 7.66406 18.353 7.82741C18.4785 7.9884 18.6454 8.11032 18.8537 8.19318C19.0644 8.27367 19.3023 8.31392 19.5675 8.31392C19.8279 8.31392 20.054 8.27604 20.2457 8.20028C20.4399 8.12453 20.5902 8.01918 20.6967 7.88423C20.8033 7.74929 20.8565 7.59422 20.8565 7.41903C20.8565 7.25568 20.808 7.11837 20.7109 7.0071C20.6162 6.89583 20.4766 6.80114 20.2919 6.72301C20.1096 6.64489 19.8859 6.57386 19.6207 6.50994L18.8288 6.31108C18.2157 6.16193 17.7315 5.92874 17.3764 5.61151C17.0213 5.29427 16.8449 4.86695 16.8473 4.32955C16.8449 3.8892 16.9621 3.5045 17.1989 3.17543C17.438 2.84635 17.7659 2.58949 18.1825 2.40483C18.5992 2.22017 19.0727 2.12784 19.603 2.12784C20.1428 2.12784 20.6139 2.22017 21.0163 2.40483C21.4212 2.58949 21.736 2.84635 21.9609 3.17543C22.1858 3.5045 22.3018 3.88565 22.3089 4.31889H20.8352ZM24.9696 9.60298C24.6216 9.60298 24.3115 9.54261 24.0392 9.42188C23.767 9.29877 23.5516 9.11766 23.3929 8.87855C23.2367 8.63707 23.1586 8.33641 23.1586 7.97656C23.1586 7.67353 23.2142 7.41903 23.3255 7.21307C23.4367 7.0071 23.5882 6.84138 23.78 6.71591C23.9718 6.59044 24.1896 6.49574 24.4334 6.43182C24.6796 6.3679 24.9377 6.32292 25.2076 6.29688C25.5248 6.26373 25.7805 6.23295 25.9746 6.20455C26.1687 6.17377 26.3096 6.12879 26.3972 6.0696C26.4848 6.01042 26.5286 5.92282 26.5286 5.80682V5.78551C26.5286 5.56061 26.4576 5.3866 26.3155 5.26349C26.1758 5.14039 25.977 5.07884 25.7189 5.07884C25.4467 5.07884 25.2301 5.1392 25.0691 5.25994C24.9081 5.37831 24.8016 5.52746 24.7495 5.70739L23.3503 5.59375C23.4213 5.26231 23.561 4.97585 23.7694 4.73438C23.9777 4.49053 24.2464 4.3035 24.5755 4.1733C24.9069 4.04072 25.2904 3.97443 25.726 3.97443C26.0291 3.97443 26.3191 4.00994 26.5961 4.08097C26.8754 4.15199 27.1228 4.26207 27.3382 4.41122C27.556 4.56037 27.7277 4.75213 27.8532 4.98651C27.9786 5.21851 28.0414 5.49669 28.0414 5.82102V9.5H26.6067V8.74361H26.5641C26.4765 8.91406 26.3593 9.06439 26.2125 9.1946C26.0658 9.32244 25.8894 9.42306 25.6834 9.49645C25.4775 9.56747 25.2395 9.60298 24.9696 9.60298ZM25.4029 8.55895C25.6254 8.55895 25.8219 8.51515 25.9924 8.42756C26.1628 8.33759 26.2966 8.21686 26.3936 8.06534C26.4907 7.91383 26.5392 7.74219 26.5392 7.55043V6.97159C26.4919 7.00237 26.4268 7.03078 26.3439 7.05682C26.2634 7.08049 26.1723 7.10298 26.0705 7.12429C25.9687 7.14323 25.8669 7.16098 25.7651 7.17756C25.6633 7.19176 25.571 7.20478 25.4881 7.21662C25.3105 7.24266 25.1555 7.28409 25.0229 7.34091C24.8903 7.39773 24.7873 7.47467 24.714 7.57173C24.6406 7.66643 24.6039 7.7848 24.6039 7.92685C24.6039 8.13281 24.6784 8.29025 24.8276 8.39915C24.9791 8.50568 25.1709 8.55895 25.4029 8.55895ZM30.7278 6.34659V9.5H29.215V4.04545H30.6568V5.00781H30.7207C30.8414 4.69058 31.0439 4.43963 31.3279 4.25497C31.612 4.06795 31.9565 3.97443 32.3613 3.97443C32.7401 3.97443 33.0704 4.05729 33.3521 4.22301C33.6338 4.38873 33.8528 4.62547 34.0091 4.93324C34.1653 5.23864 34.2434 5.60322 34.2434 6.02699V9.5H32.7306V6.29688C32.733 5.96307 32.6478 5.70265 32.475 5.51562C32.3021 5.32623 32.0642 5.23153 31.7612 5.23153C31.5576 5.23153 31.3777 5.27533 31.2214 5.36293C31.0675 5.45052 30.9468 5.57836 30.8592 5.74645C30.774 5.91217 30.7302 6.11222 30.7278 6.34659ZM37.9002 9.60653C37.3415 9.60653 36.8609 9.48816 36.4585 9.25142C36.0584 9.01231 35.7506 8.68087 35.5352 8.2571C35.3221 7.83333 35.2156 7.34564 35.2156 6.79403C35.2156 6.23532 35.3233 5.74527 35.5387 5.32386C35.7565 4.90009 36.0655 4.56984 36.4656 4.3331C36.8656 4.09399 37.3415 3.97443 37.8931 3.97443C38.369 3.97443 38.7856 4.06084 39.1431 4.23366C39.5006 4.40649 39.7835 4.64915 39.9918 4.96165C40.2002 5.27415 40.315 5.6411 40.3363 6.0625H38.9087C38.8685 5.79025 38.762 5.57126 38.5891 5.40554C38.4187 5.23745 38.195 5.15341 37.918 5.15341C37.6836 5.15341 37.4788 5.21733 37.3036 5.34517C37.1308 5.47064 36.9959 5.65412 36.8988 5.8956C36.8017 6.13707 36.7532 6.42945 36.7532 6.77273C36.7532 7.12074 36.8005 7.41667 36.8952 7.66051C36.9923 7.90436 37.1284 8.0902 37.3036 8.21804C37.4788 8.34588 37.6836 8.4098 37.918 8.4098C38.0908 8.4098 38.2459 8.37429 38.3832 8.30327C38.5228 8.23224 38.6377 8.12926 38.7276 7.99432C38.82 7.85701 38.8803 7.69247 38.9087 7.50071H40.3363C40.3126 7.91738 40.199 8.28433 39.9954 8.60156C39.7942 8.91643 39.516 9.16264 39.1609 9.3402C38.8058 9.51776 38.3855 9.60653 37.9002 9.60653ZM44.2061 4.04545V5.18182H40.9213V4.04545H44.2061ZM41.6671 2.73864H43.1799V7.82386C43.1799 7.96354 43.2012 8.07244 43.2438 8.15057C43.2864 8.22633 43.3456 8.27959 43.4213 8.31037C43.4995 8.34115 43.5894 8.35653 43.6912 8.35653C43.7623 8.35653 43.8333 8.35062 43.9043 8.33878C43.9753 8.32457 44.0298 8.31392 44.0676 8.30682L44.3056 9.43253C44.2298 9.4562 44.1233 9.48343 43.986 9.5142C43.8487 9.54735 43.6818 9.56747 43.4853 9.57457C43.1207 9.58878 42.8011 9.54025 42.5265 9.42898C42.2542 9.31771 42.0423 9.14489 41.8908 8.91051C41.7393 8.67614 41.6647 8.38021 41.6671 8.02273V2.73864ZM45.1916 9.5V4.04545H46.7044V9.5H45.1916ZM45.9515 3.34233C45.7266 3.34233 45.5337 3.26776 45.3727 3.11861C45.2141 2.96709 45.1348 2.78598 45.1348 2.57528C45.1348 2.36695 45.2141 2.18821 45.3727 2.03906C45.5337 1.88755 45.7266 1.81179 45.9515 1.81179C46.1764 1.81179 46.3682 1.88755 46.5268 2.03906C46.6878 2.18821 46.7683 2.36695 46.7683 2.57528C46.7683 2.78598 46.6878 2.96709 46.5268 3.11861C46.3682 3.26776 46.1764 3.34233 45.9515 3.34233ZM50.3807 9.60653C49.8291 9.60653 49.352 9.48935 48.9496 9.25497C48.5495 9.01823 48.2405 8.68916 48.0227 8.26776C47.8049 7.84399 47.696 7.35275 47.696 6.79403C47.696 6.23059 47.8049 5.73816 48.0227 5.31676C48.2405 4.89299 48.5495 4.56392 48.9496 4.32955C49.352 4.0928 49.8291 3.97443 50.3807 3.97443C50.9323 3.97443 51.4081 4.0928 51.8082 4.32955C52.2107 4.56392 52.5208 4.89299 52.7386 5.31676C52.9564 5.73816 53.0653 6.23059 53.0653 6.79403C53.0653 7.35275 52.9564 7.84399 52.7386 8.26776C52.5208 8.68916 52.2107 9.01823 51.8082 9.25497C51.4081 9.48935 50.9323 9.60653 50.3807 9.60653ZM50.3878 8.43466C50.6387 8.43466 50.8482 8.36364 51.0163 8.22159C51.1844 8.07718 51.3111 7.88068 51.3963 7.6321C51.4839 7.38352 51.5277 7.10062 51.5277 6.78338C51.5277 6.46615 51.4839 6.18324 51.3963 5.93466C51.3111 5.68608 51.1844 5.48958 51.0163 5.34517C50.8482 5.20076 50.6387 5.12855 50.3878 5.12855C50.1345 5.12855 49.9214 5.20076 49.7486 5.34517C49.5781 5.48958 49.4491 5.68608 49.3615 5.93466C49.2763 6.18324 49.2337 6.46615 49.2337 6.78338C49.2337 7.10062 49.2763 7.38352 49.3615 7.6321C49.4491 7.88068 49.5781 8.07718 49.7486 8.22159C49.9214 8.36364 50.1345 8.43466 50.3878 8.43466ZM55.5618 6.34659V9.5H54.049V4.04545H55.4908V5.00781H55.5547C55.6754 4.69058 55.8778 4.43963 56.1619 4.25497C56.446 4.06795 56.7905 3.97443 57.1953 3.97443C57.5741 3.97443 57.9044 4.05729 58.1861 4.22301C58.4678 4.38873 58.6868 4.62547 58.843 4.93324C58.9993 5.23864 59.0774 5.60322 59.0774 6.02699V9.5H57.5646V6.29688C57.567 5.96307 57.4818 5.70265 57.3089 5.51562C57.1361 5.32623 56.8982 5.23153 56.5952 5.23153C56.3916 5.23153 56.2116 5.27533 56.0554 5.36293C55.9015 5.45052 55.7808 5.57836 55.6932 5.74645C55.608 5.91217 55.5642 6.11222 55.5618 6.34659ZM62.7555 9.60653C62.1944 9.60653 61.7115 9.4929 61.3066 9.26562C60.9042 9.03598 60.594 8.71165 60.3762 8.29261C60.1584 7.87121 60.0495 7.37287 60.0495 6.79759C60.0495 6.23651 60.1584 5.74408 60.3762 5.32031C60.594 4.89654 60.9006 4.56629 61.296 4.32955C61.6937 4.0928 62.1601 3.97443 62.6951 3.97443C63.055 3.97443 63.39 4.03243 63.7001 4.14844C64.0126 4.26207 64.2849 4.43371 64.5169 4.66335C64.7512 4.89299 64.9335 5.18182 65.0637 5.52983C65.194 5.87547 65.2591 6.2803 65.2591 6.74432V7.1598H60.6532V6.2223H63.835C63.835 6.0045 63.7877 5.81155 63.693 5.64347C63.5983 5.47538 63.4669 5.34399 63.2988 5.24929C63.1331 5.15223 62.9402 5.10369 62.72 5.10369C62.4904 5.10369 62.2868 5.15696 62.1092 5.26349C61.934 5.36766 61.7967 5.50852 61.6973 5.68608C61.5978 5.86127 61.5469 6.05658 61.5446 6.27202V7.16335C61.5446 7.43324 61.5943 7.66643 61.6937 7.86293C61.7955 8.05942 61.9387 8.21094 62.1234 8.31747C62.3081 8.42401 62.527 8.47727 62.7804 8.47727C62.9484 8.47727 63.1023 8.4536 63.242 8.40625C63.3817 8.3589 63.5012 8.28788 63.6007 8.19318C63.7001 8.09848 63.7759 7.98248 63.8279 7.84517L65.2271 7.9375C65.1561 8.27367 65.0105 8.56723 64.7903 8.81818C64.5725 9.06676 64.2908 9.26089 63.9451 9.40057C63.6019 9.53788 63.2053 9.60653 62.7555 9.60653ZM68.2562 9.58878C67.8419 9.58878 67.4667 9.48224 67.1305 9.26918C66.7967 9.05374 66.5315 8.73769 66.335 8.32102C66.1409 7.90199 66.0439 7.38826 66.0439 6.77983C66.0439 6.15483 66.1445 5.63518 66.3457 5.22088C66.5469 4.80421 66.8145 4.4929 67.1483 4.28693C67.4844 4.0786 67.8526 3.97443 68.2527 3.97443C68.5581 3.97443 68.8126 4.02652 69.0162 4.13068C69.2221 4.23248 69.3878 4.36032 69.5133 4.5142C69.6412 4.66572 69.7382 4.81487 69.8045 4.96165H69.8507V2.22727H71.3599V9.5H69.8684V8.62642H69.8045C69.7335 8.77794 69.6329 8.92827 69.5027 9.07741C69.3748 9.2242 69.2079 9.34612 69.002 9.44318C68.7984 9.54025 68.5498 9.58878 68.2562 9.58878ZM68.7356 8.38494C68.9795 8.38494 69.1854 8.31866 69.3535 8.18608C69.524 8.05114 69.6542 7.86293 69.7441 7.62145C69.8365 7.37997 69.8826 7.09706 69.8826 6.77273C69.8826 6.44839 69.8377 6.16667 69.7477 5.92756C69.6577 5.68845 69.5275 5.50379 69.3571 5.37358C69.1866 5.24337 68.9795 5.17827 68.7356 5.17827C68.487 5.17827 68.2775 5.24574 68.1071 5.38068C67.9366 5.51562 67.8076 5.70265 67.72 5.94176C67.6324 6.18087 67.5886 6.45786 67.5886 6.77273C67.5886 7.08996 67.6324 7.3705 67.72 7.61435C67.81 7.85582 67.939 8.04522 68.1071 8.18253C68.2775 8.31747 68.487 8.38494 68.7356 8.38494Z" fill="#F75349"/>
</svg>
