<svg width="136" height="24" viewBox="0 0 136 24" fill="none" xmlns="http://www.w3.org/2000/svg">
<path fill-rule="evenodd" clip-rule="evenodd" d="M13.1146 0.104332C12.9832 0.0312949 11.5504 -0.027491 10.6929 0.0134808C7.21309 0.177368 4.38664 1.45105 2.51004 3.69916C1.20156 5.26321 0.423933 7.15681 0.0759531 9.60443C-0.0216944 10.2724 -0.0270204 13.0799 0.070627 13.1779C0.106135 13.2135 0.384874 13.2634 0.69557 13.2865C1.44124 13.3489 2.94856 13.3044 3.80786 13.1957C5.67204 12.9516 7.55042 12.2444 8.9601 11.2451C9.65428 10.7588 10.7568 9.64718 11.2468 8.95066C12.289 7.47746 12.9636 5.53932 13.1749 3.45511C13.2655 2.53057 13.2246 0.173806 13.1181 0.106113L13.1146 0.104332ZM12.4008 2.2117C12.2428 5.68717 11.3374 7.98694 9.40928 9.83601H9.4075C7.81496 11.3573 5.61345 12.232 2.8669 12.4244C0.814523 12.5722 0.791442 12.5597 0.841154 10.8888C0.903293 8.89722 1.26193 7.41867 2.05376 5.86709C2.91306 4.18369 4.18602 2.91713 5.88864 2.0496C7.45278 1.25688 9.27967 0.845386 11.2522 0.845386C12.3565 0.845386 12.4648 0.977207 12.4008 2.20992V2.2117Z" fill="white"/>
<path fill-rule="evenodd" clip-rule="evenodd" d="M6.29279 9.36191V10.2864L6.82541 10.2508C7.81609 10.1831 8.52448 9.86782 9.21689 9.18377C9.9093 8.49972 10.2981 7.58053 10.2981 6.63284V6.21777H9.42816V6.65956C9.42816 7.50749 9.04112 8.2913 8.36114 8.79899C7.88356 9.1517 7.46634 9.296 6.82186 9.33519L6.29102 9.36191H6.29279Z" fill="white"/>
<path fill-rule="evenodd" clip-rule="evenodd" d="M6.30294 8.65327C5.64781 8.55529 5.09744 8.14557 4.79562 7.53456C4.62518 7.19254 4.60742 7.10703 4.60742 6.63853C4.60742 6.19853 4.6305 6.07917 4.76011 5.7995C4.95363 5.38444 5.34599 4.98897 5.76144 4.7948C6.04018 4.66298 6.1609 4.6416 6.62606 4.6416C7.09122 4.6416 7.20662 4.65942 7.48536 4.80014C7.83867 4.97116 8.25766 5.388 8.43343 5.73002C9.17377 7.18541 7.92211 8.89197 6.30116 8.65149L6.30294 8.65327Z" fill="white"/>
<path fill-rule="evenodd" clip-rule="evenodd" d="M3.39716 5.11034C3.13084 5.66969 3.06338 5.91908 3.01367 6.59957L2.97461 7.09123H3.85521V6.75455C3.85521 5.17625 5.06426 3.94709 6.60887 3.94709H6.98881V3.07422H6.69586C6.13839 3.07956 5.51699 3.22742 5.01633 3.47681C4.33457 3.81705 3.71318 4.44588 3.39893 5.11212L3.39716 5.11034Z" fill="white"/>
<path fill-rule="evenodd" clip-rule="evenodd" d="M19.9475 13.2295C18.7864 13.0211 17.5382 12.3691 16.6133 11.5051L16.2812 11.188L16.6204 10.8425L16.9595 10.4969L17.3394 10.8478C18.4472 11.8685 19.6492 12.337 21.1743 12.337C22.3354 12.337 23.1521 12.0484 23.7895 11.4143C24.3469 10.8603 24.6168 10.0301 24.4854 9.24634C24.3771 8.5712 24.0487 8.09913 23.3989 7.68407C22.8698 7.35095 22.3283 7.16034 20.7482 6.76844C19.9208 6.56002 19.058 6.31775 18.8414 6.2269C17.7832 5.78868 17.1796 5.10819 16.9719 4.12309C16.8636 3.61718 16.8636 3.29297 16.9719 2.83694C17.208 1.83936 17.9146 1.01458 18.9834 0.490858C19.6741 0.15774 20.0593 0.0579833 20.8849 0.0170116C22.0975 -0.0417739 23.3456 0.259279 24.3061 0.84179L24.7553 1.11434L24.4339 1.48309C24.2617 1.67904 24.1073 1.84649 24.0948 1.84649C24.0824 1.84649 23.951 1.76454 23.8001 1.67369C23.1272 1.24082 22.1206 0.980737 21.1547 0.980737C20.0345 0.980737 19.3083 1.25863 18.6319 1.93199C18.0922 2.46819 17.9537 2.80843 17.9874 3.52455C18.0283 4.37249 18.3904 4.90334 19.1663 5.25961C19.374 5.35224 20.1783 5.58204 20.9541 5.77265C22.5982 6.1699 22.9728 6.28569 23.5231 6.56358C24.6541 7.12828 25.2755 7.81055 25.5009 8.73152C25.6004 9.13589 25.5879 10.0747 25.4779 10.5076C25.121 11.8863 23.9546 12.8946 22.3336 13.2295C21.7939 13.3382 20.5458 13.3435 19.9475 13.2348V13.2313V13.2295Z" fill="white"/>
<path fill-rule="evenodd" clip-rule="evenodd" d="M38.0285 0.199219C38.0285 0.199219 36.8177 2.33509 35.3495 4.87356L32.6863 9.49446V13.2033H31.6211V11.2865V9.34126L34.2434 4.7738L36.8585 0.201001H38.0285V0.199219Z" fill="white"/>
<path fill-rule="evenodd" clip-rule="evenodd" d="M30.7716 8.00539L26.3242 0.201172H27.4711L31.3149 7.03811L30.7716 8.00539Z" fill="white"/>
<path d="M39.5684 0.099438L48.4454 10.6203V0.199195H49.5106V13.3048L40.6336 2.75013V13.2033H39.5684V0.0976562V0.099438Z" fill="white"/>
<path d="M53.1181 0.0419922L58.2082 8.33431L63.2983 0.0419922L64.5589 13.2046H63.5007L62.526 2.9403L58.2082 10.0676L53.8922 2.9403L52.9175 13.2046H51.8594L53.1199 0.0419922H53.1181Z" fill="white"/>
<path fill-rule="evenodd" clip-rule="evenodd" d="M76.3558 13.2047C76.3558 13.2047 75.2905 10.7161 74.0495 7.7359C72.8085 4.76278 71.7415 2.33654 71.7415 2.33654C71.7415 2.33654 70.6691 4.79128 69.4228 7.77687L67.1556 13.2047H66.0566L71.7415 0.00292969C71.7415 0.00292969 73.0642 2.97071 74.6177 6.60116L77.4423 13.2047H76.3558Z" fill="white"/>
<path fill-rule="evenodd" clip-rule="evenodd" d="M78.7891 13.2052H80.0088L83.8987 7.47276L87.7744 13.2052H89.0225L84.5183 6.53754L88.758 0.201172H87.5507L78.7891 13.2052Z" fill="white"/>
<path fill-rule="evenodd" clip-rule="evenodd" d="M82.5918 5.54175C82.6593 5.43487 83.2168 4.61365 83.2168 4.61365L80.2341 0.201172H78.9824C78.9824 0.201172 82.5119 5.4224 82.5936 5.54175H82.5918Z" fill="white"/>
<path d="M32.4251 19.0376H31.7227V23.917H32.4251V19.0376Z" fill="white"/>
<path d="M37.6385 22.2718L34.5054 18.9307L34.509 19.2242V23.9188H35.2115V20.6991L38.341 24.0003V18.9977H37.6385V22.2718Z" fill="white"/>
<path d="M77.3828 22.2718L74.2497 18.9307L74.2533 19.2242V23.9188H74.9558V20.6991L78.0853 24.0003L78.0835 23.7159V18.9977H77.3828V22.2718Z" fill="white"/>
<path d="M40.1468 19.7188H41.559V23.9188H42.2596V19.7188H43.6645V19.0376H40.1468V19.7188Z" fill="white"/>
<path d="M45.4668 23.9188H48.5367V23.2375H46.1692V21.8804H48.2405V21.201H46.1692V19.7188H48.5367V19.0376H45.4668V23.9188Z" fill="white"/>
<path d="M51.1388 19.0629H50.4382V23.9188H53.5063V23.2375H51.1388V19.0629Z" fill="white"/>
<path d="M56.0091 19.0629H55.3085V23.9188H58.3766V23.2375H56.0091V19.0629Z" fill="white"/>
<path d="M60.8812 19.0376H60.1788V23.917H60.8812V19.0376Z" fill="white"/>
<path d="M65.0725 22.0344H66.5678C66.5317 22.1903 66.4829 22.3352 66.4179 22.4639C66.3294 22.6432 66.2156 22.7972 66.0838 22.9241C65.952 23.0491 65.7985 23.1451 65.6269 23.2122C65.2658 23.3517 64.8215 23.3481 64.4477 23.185C64.2527 23.0998 64.0775 22.9766 63.9277 22.819C63.7778 22.6614 63.6568 22.4675 63.5701 22.2428C63.4816 22.0163 63.4365 21.759 63.4365 21.4764C63.4365 21.1937 63.4816 20.9364 63.5701 20.7099C63.6586 20.4853 63.7796 20.2896 63.9277 20.1338C64.0775 19.9761 64.2527 19.8547 64.4495 19.7678C64.6464 19.6826 64.8559 19.6391 65.0725 19.6391C65.3416 19.6391 65.5926 19.6935 65.8166 19.8004C66.0369 19.9055 66.212 20.0486 66.3366 20.2262L66.4071 20.3258L67.0788 20.112L66.9669 19.9308C66.7827 19.6337 66.5226 19.3963 66.1922 19.2206C65.8653 19.0466 65.4861 18.9578 65.0671 18.9578C64.7547 18.9578 64.4532 19.0194 64.1696 19.139C63.8861 19.2604 63.6351 19.4326 63.422 19.6536C63.2089 19.8728 63.0374 20.141 62.9128 20.449C62.7864 20.7571 62.7232 21.1031 62.7232 21.4746C62.7232 21.846 62.7864 22.1903 62.9128 22.5001C63.0392 22.8081 63.2107 23.0763 63.422 23.2955C63.6351 23.5166 63.8861 23.6887 64.1696 23.8101C64.4532 23.9315 64.7547 23.9931 65.0671 23.9931C65.3795 23.9931 65.6811 23.9351 65.952 23.821C66.2247 23.705 66.4648 23.5401 66.6653 23.3263C66.8657 23.1143 67.0283 22.8588 67.1474 22.5635C67.2666 22.27 67.3334 21.942 67.3461 21.5887L67.3623 21.3514H65.0744V22.0326L65.0725 22.0344Z" fill="white"/>
<path d="M69.1754 23.9188H72.2453V23.2375H69.8778V21.8804H71.9491V21.201H69.8778V19.7188H72.2453V19.0376H69.1754V23.9188Z" fill="white"/>
<path d="M81.0252 20.1356C81.175 19.9779 81.3502 19.8565 81.5471 19.7696C81.7439 19.6844 81.9534 19.6409 82.1701 19.6409C82.45 19.6409 82.71 19.7007 82.9429 19.8167C83.1723 19.9308 83.3511 20.0903 83.4757 20.2914L83.5425 20.3983L84.2251 20.1972L84.1203 20.0142C83.9325 19.6898 83.6653 19.4289 83.3258 19.2405C82.9881 19.0539 82.598 18.9597 82.1664 18.9597C81.854 18.9597 81.5525 19.0213 81.269 19.1408C80.9854 19.2622 80.7344 19.4344 80.5213 19.6554C80.3083 19.8747 80.1367 20.1428 80.0121 20.4508C79.8857 20.7589 79.8225 21.1049 79.8225 21.4764C79.8225 21.8478 79.8857 22.1921 80.0121 22.5019C80.1385 22.8099 80.3101 23.0781 80.5213 23.2973C80.7344 23.5184 80.9854 23.6905 81.269 23.8119C81.5525 23.9333 81.854 23.9949 82.1664 23.9949C82.5854 23.9949 82.97 23.9025 83.3113 23.7213C83.6562 23.5383 83.9289 23.2756 84.1203 22.9404L84.2251 22.7592L83.5461 22.5581L83.4793 22.6632C83.3475 22.8697 83.1633 23.031 82.9339 23.1433C82.515 23.3481 81.9931 23.3807 81.5489 23.1868C81.352 23.1016 81.1769 22.9784 81.027 22.8208C80.8771 22.6632 80.7561 22.4693 80.6694 22.2446C80.5809 22.0181 80.5358 21.7608 80.5358 21.4782C80.5358 21.1955 80.5809 20.9382 80.6694 20.7118C80.7579 20.4871 80.8789 20.2914 81.027 20.1356H81.0252Z" fill="white"/>
<path d="M89.0232 19.7188V19.0376H85.9533V23.9188H89.0232V23.2375H86.6557V21.8804H88.7288V21.201H86.6557V19.7188H89.0232Z" fill="white"/>
<path d="M98.3305 8.11816H96.9142V1.5442H94.4475V0.281339H100.785V1.5442H98.3305V8.11816ZM110.651 8.11816H109.234V4.78987H105.163V8.11816H103.746V0.281339H105.163V3.52701H109.234V0.281339H110.651V8.11816ZM115.612 3.56242H119.141V4.78987H115.612V6.8553H119.991V8.11816H114.196V0.281339H119.991V1.5442H115.612V3.56242ZM123.216 8.11816V0.281339H124.632V8.11816H123.216ZM134.21 8.11816L133.584 6.64286H129.572L128.946 8.11816H127.471L130.917 0.281339H132.274L135.733 8.11816H134.21ZM131.59 1.88647H131.566L130.091 5.4036H133.065L131.59 1.88647Z" fill="#0094FF"/>
</svg>
