<svg width="152" height="16" viewBox="0 0 152 16" fill="none" xmlns="http://www.w3.org/2000/svg">
<path d="M0.716131 15.2622C0.393974 15.2388 0.106962 15.1861 0.0718176 15.1509C-0.0277581 15.0514 -0.0219006 12.1695 0.077675 11.4842C0.434976 8.9714 1.23744 7.02674 2.58464 5.42182C4.51758 3.114 7.4287 1.8078 11.0134 1.63794C11.8979 1.59694 13.374 1.65551 13.5087 1.73166C13.62 1.80195 13.661 4.22105 13.5672 5.16995C13.3505 7.3079 12.6535 9.29941 11.5816 10.8106C11.0779 11.5252 9.94152 12.6674 9.22692 13.1653C7.77429 14.1903 5.84135 14.9166 3.92012 15.1685C3.03566 15.2798 1.48345 15.3267 0.716131 15.2622ZM2.95365 14.3778C5.78277 14.1786 8.04959 13.2824 9.68966 11.7185C11.6753 9.82072 12.6066 7.46019 12.7706 3.89304C12.8351 2.62784 12.7238 2.49312 11.5875 2.49312C9.55494 2.49312 7.67471 2.91485 6.06393 3.72903C4.31257 4.61935 3.00051 5.91969 2.11605 7.64762C1.30187 9.24084 0.932854 10.7579 0.868423 12.8021C0.815706 14.5183 0.839136 14.5301 2.95365 14.3778Z" fill="white"/>
<path d="M6.41534 11.7362V11.2969L6.96008 11.2676C7.62197 11.2266 8.04956 11.0743 8.54158 10.7053C9.23861 10.1723 9.63691 9.35223 9.63691 8.46191V7.99918H10.0762H10.5155V8.42677C10.5155 9.39909 10.1172 10.3421 9.40847 11.045C8.69973 11.7479 7.97341 12.0701 6.96008 12.1404L6.41534 12.1755V11.7362Z" fill="white"/>
<path d="M6.49132 10.5059C5.81772 10.4063 5.24955 9.98458 4.93911 9.35784C4.76339 9.00639 4.74582 8.91853 4.74582 8.43823C4.74582 7.98721 4.76925 7.8642 4.90397 7.57719C5.10312 7.1496 5.50728 6.74544 5.93487 6.54629C6.22188 6.41157 6.34489 6.38814 6.82519 6.38814C7.31136 6.38814 7.42265 6.40571 7.70966 6.55214C8.07282 6.72787 8.50626 7.15546 8.68784 7.5069C9.4493 9.00053 8.16068 10.7519 6.49132 10.5059Z" fill="white"/>
<path d="M3.10593 8.3681C3.15864 7.66522 3.22893 7.40749 3.50423 6.82761C3.83224 6.13644 4.47656 5.48627 5.1853 5.13482C5.70661 4.8771 6.35092 4.72481 6.93081 4.71895H7.23539V5.15825V5.59756H6.83709C5.22045 5.59756 3.95525 6.88033 3.95525 8.52625V8.8777H3.51009H3.06493L3.10593 8.3681Z" fill="white"/>
<path d="M20.549 14.9986C19.3658 14.7877 18.0948 14.1259 17.1517 13.2473L16.812 12.9251L17.1576 12.5737L17.5032 12.2222L17.8898 12.5795C19.0202 13.6163 20.2444 14.0907 21.7967 14.0907C22.9798 14.0907 23.8116 13.7979 24.4618 13.1535C25.0299 12.5912 25.3052 11.7478 25.1705 10.9512C25.0592 10.2658 24.7253 9.78554 24.0635 9.3638C23.5246 9.02408 22.974 8.83078 21.3632 8.43248C20.5197 8.22161 19.6411 7.9756 19.4186 7.88188C18.3408 7.43672 17.7258 6.74555 17.5149 5.74393C17.4036 5.22848 17.4036 4.90047 17.5149 4.43774C17.7551 3.42441 18.4755 2.5868 19.565 2.05378C20.2679 1.71405 20.6603 1.61447 21.5038 1.57347C22.7397 1.5149 24.0107 1.81948 24.9889 2.41108L25.4458 2.68638L25.1178 3.06125C24.9421 3.2604 24.7839 3.43026 24.7722 3.43026C24.7605 3.43026 24.6258 3.34826 24.4735 3.25454C23.7882 2.81524 22.7631 2.55166 21.7791 2.55166C20.6369 2.55166 19.8989 2.83281 19.2077 3.51813C18.6571 4.06286 18.5165 4.40845 18.5517 5.13477C18.5927 5.9958 18.9617 6.53468 19.7524 6.89784C19.9633 6.99156 20.7833 7.22586 21.5741 7.41915C23.2493 7.82331 23.63 7.94046 24.1923 8.22161C25.3462 8.79564 25.9788 9.48681 26.2073 10.424C26.3068 10.834 26.2951 11.7888 26.1838 12.2281C25.8207 13.628 24.6316 14.653 22.9798 14.9928C22.4293 15.104 21.1582 15.1099 20.549 14.9986Z" fill="white"/>
<path d="M46.4213 9.58058L41.9404 4.19178L41.9228 9.522L41.9111 14.8522H41.3839H40.8567V8.1748C40.8567 4.50222 40.8802 1.49738 40.9036 1.49738C40.9329 1.49738 42.9713 3.91648 45.4314 6.8686L49.9064 12.2398L49.924 6.92718L49.9357 1.61452H50.4629H50.99V8.29195C50.99 11.9645 50.9725 14.9694 50.949 14.9694C50.9197 14.9694 48.8872 12.5444 46.4213 9.58058Z" fill="white"/>
<path d="M32.5978 12.8905V10.9341L35.1926 6.33604L37.7816 1.73213H38.3556C38.666 1.73213 38.9237 1.74385 38.9237 1.76142C38.9237 1.77313 37.7406 3.8818 36.2879 6.43562L33.6521 11.0864V12.9666V14.8527H33.1249H32.5978V12.8905Z" fill="white"/>
<path d="M53.5676 14.7235C53.5793 14.1847 54.8445 1.53269 54.8855 1.51512C54.9206 1.50926 56.0745 3.39534 57.4627 5.71487C59.4015 8.97158 59.9931 9.91462 60.0458 9.85604C60.081 9.8209 61.2115 7.94068 62.5587 5.68558C63.9059 3.43049 65.0246 1.56198 65.0539 1.53269C65.0832 1.50341 65.1183 1.49169 65.1359 1.50926C65.1535 1.52098 65.4405 4.42039 65.7802 7.94654C66.1141 11.4727 66.407 14.4658 66.4245 14.6064L66.4597 14.8524H65.9384H65.4112L65.3761 14.5771C65.3585 14.419 65.1418 12.1639 64.9016 9.55146C64.6615 6.94492 64.4447 4.71911 64.4272 4.60782C64.3979 4.42624 64.2514 4.65468 62.2306 8.02268C61.0357 10.0083 60.0341 11.6308 59.9931 11.6308C59.9521 11.625 58.9505 10.0025 57.7556 8.01097C56.426 5.79102 55.5825 4.44382 55.5767 4.5141C55.5356 4.81283 54.6219 14.6064 54.6219 14.7235C54.6219 14.8465 54.5985 14.8524 54.0947 14.8524C53.5851 14.8524 53.5676 14.8465 53.5676 14.7235Z" fill="white"/>
<path d="M68.3339 14.5769C69.4996 11.8005 73.9336 1.53833 73.9746 1.53247C73.998 1.53247 75.3101 4.51974 76.8799 8.17475L79.7324 14.8229L79.2053 14.8405C78.9124 14.8463 78.6547 14.8346 78.6312 14.8112C78.6078 14.7877 77.5593 12.3159 76.3059 9.31694C75.0524 6.32382 74.0039 3.87543 73.9746 3.88128C73.9453 3.88714 72.891 6.3531 71.6317 9.35795L69.3414 14.8229L68.7791 14.8405L68.2168 14.858L68.3339 14.5769Z" fill="white"/>
<path d="M81.3314 14.8234C81.3314 14.8058 82.3565 13.2888 83.6041 11.4437C84.8576 9.59861 86.8491 6.6582 88.0323 4.9127L90.1819 1.73213H90.7911H91.4003L90.1058 3.65336C89.3971 4.70769 88.4364 6.14275 87.9678 6.83978L87.1185 8.11083L89.4029 11.4788L91.6873 14.8527H91.0605H90.4338L88.4891 11.9533C87.4172 10.3601 86.5211 9.05387 86.4918 9.05387C86.4684 9.05387 85.5663 10.3601 84.4944 11.9533L82.5439 14.8527H81.9347C81.6067 14.8527 81.3314 14.841 81.3314 14.8234Z" fill="white"/>
<path d="M29.5464 5.7093C28.3398 3.57721 27.3499 1.81414 27.3381 1.78485C27.3264 1.75556 27.5783 1.73213 27.8946 1.73213H28.4686L30.4133 5.17628L32.3521 8.61457L32.1002 9.08316C31.9596 9.34088 31.8191 9.55761 31.7898 9.56932C31.7605 9.57518 30.753 7.84139 29.5464 5.7093Z" fill="white"/>
<path d="M83.2294 4.56125C82.298 3.19062 81.4897 1.98986 81.4311 1.902L81.3199 1.73213H81.9349H82.5558L83.2235 2.71617C83.5867 3.25505 84.2661 4.25081 84.723 4.93613L85.5665 6.17789L85.2794 6.59962C85.1213 6.82806 84.9807 7.02136 84.9631 7.03307C84.9397 7.04479 84.1665 5.93188 83.2294 4.56125Z" fill="white"/>
<path d="M145.978 15.1493C145.142 15.1493 144.394 14.9311 143.733 14.4947C143.085 14.0459 142.567 13.4349 142.181 12.6619C141.794 11.8763 141.601 10.9911 141.601 10.0061C141.601 8.9961 141.794 8.10459 142.181 7.33154C142.567 6.55849 143.097 5.95376 143.771 5.51736C144.444 5.06849 145.211 4.84406 146.071 4.84406C146.545 4.84406 146.975 4.91263 147.362 5.04979C147.761 5.18694 148.11 5.3802 148.409 5.62958C148.708 5.86648 148.964 6.14702 149.176 6.47121C149.388 6.78292 149.544 7.11957 149.643 7.48116L149.026 7.40635V5.04979H152V14.981H148.97V12.587L149.643 12.5683C149.544 12.9175 149.382 13.2479 149.157 13.5596C148.933 13.8713 148.658 14.1456 148.334 14.3825C148.01 14.6194 147.648 14.8065 147.249 14.9436C146.85 15.0808 146.427 15.1493 145.978 15.1493ZM146.801 12.6245C147.262 12.6245 147.661 12.5185 147.998 12.3065C148.334 12.0945 148.596 11.7953 148.783 11.4088C148.97 11.0098 149.064 10.5422 149.064 10.0061C149.064 9.4699 148.97 9.00856 148.783 8.62204C148.596 8.22304 148.334 7.91756 147.998 7.7056C147.661 7.48116 147.262 7.36894 146.801 7.36894C146.352 7.36894 145.959 7.48116 145.622 7.7056C145.298 7.91756 145.042 8.22304 144.855 8.62204C144.668 9.00856 144.575 9.4699 144.575 10.0061C144.575 10.5422 144.668 11.0098 144.855 11.4088C145.042 11.7953 145.298 12.0945 145.622 12.3065C145.959 12.5185 146.352 12.6245 146.801 12.6245Z" fill="#0094FF"/>
<path d="M136.133 14.981V5.04978H139.126V14.981H136.133ZM137.63 3.08598C137.069 3.08598 136.626 2.95506 136.302 2.69322C135.99 2.41891 135.834 2.03238 135.834 1.53364C135.834 1.08477 135.996 0.716944 136.32 0.430166C136.645 0.143389 137.081 0 137.63 0C138.191 0 138.627 0.137155 138.939 0.411464C139.251 0.673304 139.406 1.04736 139.406 1.53364C139.406 1.99497 139.244 2.36903 138.92 2.65581C138.608 2.94259 138.178 3.08598 137.63 3.08598Z" fill="#0094FF"/>
<path d="M129.364 15.168C128.267 15.168 127.313 14.9498 126.503 14.5134C125.692 14.0646 125.062 13.4598 124.614 12.6993C124.165 11.9262 123.94 11.0472 123.94 10.0622C123.94 9.30158 124.065 8.60333 124.314 7.96744C124.564 7.33154 124.913 6.78292 125.362 6.32158C125.811 5.84778 126.34 5.48619 126.951 5.23682C127.575 4.97498 128.254 4.84406 128.99 4.84406C129.688 4.84406 130.324 4.96874 130.898 5.21811C131.484 5.46749 131.989 5.81661 132.413 6.26547C132.837 6.71434 133.161 7.24426 133.385 7.85522C133.61 8.46618 133.709 9.13325 133.684 9.85643L133.666 10.6607H125.754L125.324 8.97739H131.234L130.916 9.33275V8.95869C130.892 8.64698 130.792 8.37267 130.617 8.13576C130.455 7.88639 130.237 7.69313 129.963 7.55597C129.688 7.41882 129.377 7.35024 129.027 7.35024C128.541 7.35024 128.123 7.44999 127.774 7.64949C127.438 7.83652 127.182 8.11706 127.008 8.49112C126.833 8.85271 126.746 9.30158 126.746 9.83772C126.746 10.3863 126.858 10.8664 127.082 11.2778C127.319 11.6768 127.656 11.9886 128.092 12.213C128.541 12.4374 129.071 12.5496 129.682 12.5496C130.106 12.5496 130.48 12.4873 130.804 12.3626C131.141 12.2379 131.502 12.026 131.889 11.7267L133.292 13.7092C132.905 14.0459 132.494 14.3202 132.057 14.5321C131.621 14.7441 131.172 14.9 130.711 14.9997C130.262 15.1119 129.813 15.168 129.364 15.168Z" fill="#0094FF"/>
<path d="M112.386 14.981V1.14088H115.323V7.0697L114.724 7.29413C114.861 6.84526 115.104 6.44003 115.454 6.07844C115.815 5.70439 116.245 5.40514 116.744 5.18071C117.243 4.95627 117.767 4.84405 118.315 4.84405C119.063 4.84405 119.693 4.99991 120.204 5.31163C120.715 5.61087 121.102 6.06597 121.364 6.67694C121.626 7.27543 121.756 8.01108 121.756 8.88388V14.981H118.745V9.12701C118.745 8.72802 118.689 8.3976 118.577 8.13576C118.465 7.87392 118.29 7.68066 118.053 7.55597C117.829 7.41882 117.548 7.35647 117.212 7.36894C116.95 7.36894 116.707 7.41258 116.482 7.49986C116.258 7.57467 116.065 7.69313 115.902 7.85522C115.74 8.00484 115.609 8.1794 115.51 8.3789C115.422 8.5784 115.379 8.7966 115.379 9.0335V14.981H113.901C113.552 14.981 113.253 14.981 113.004 14.981C112.754 14.981 112.548 14.981 112.386 14.981Z" fill="#0094FF"/>
<path d="M102.918 14.981V4.69442H99.0273V1.88899H110.081V4.69442H106.097V14.981H102.918Z" fill="#0094FF"/>
</svg>
